<svg width="25" height="25" viewBox="0 0 25 25" fill="none" xmlns="http://www.w3.org/2000/svg">
<path d="M5.66405 18.939C2.21602 15.2317 2.27699 9.42073 5.85917 5.8125C7.26308 4.39222 9.08855 3.46394 11.0632 3.16616L10.958 0C8.18594 0.334724 5.60871 1.59787 3.64584 3.58384C-1.15427 8.41616 -1.2122 16.2195 3.45835 21.1616L0.80449 23.8323L9.20355 24.2912L9.18068 15.3979L5.66405 18.939ZM15.7963 0.708842L15.8191 9.60213L19.3358 6.0625C22.7838 9.77287 22.7228 15.5838 19.1407 19.189C17.737 20.6097 15.9114 21.538 13.9366 21.8354L14.0418 25C16.8139 24.6649 19.3913 23.4024 21.3555 21.4177C26.1541 16.5823 26.212 8.77896 21.5415 3.83994L24.1953 1.16616L15.7963 0.708842Z" fill="#EBDBB2"/>
</svg>
